<svg xmlns="http://www.w3.org/2000/svg" viewBox="0 0 32 32">
  <rect width="32" height="32" rx="8" fill="#6366f1"/>
  <!-- Wrench (shifted down-right) -->
  <svg x="6" y="6" width="22" height="22" viewBox="0 0 24 24" fill="none" stroke="white" stroke-width="2" stroke-linecap="round" stroke-linejoin="round">
    <path d="M14.7 6.3a1 1 0 0 0 0 1.4l1.6 1.6a1 1 0 0 0 1.4 0l3.77-3.77a6 6 0 0 1-7.94 7.94l-6.91 6.91a2.12 2.12 0 0 1-3-3l6.91-6.91a6 6 0 0 1 7.94-7.94l-3.76 3.76z"/>
  </svg>
  <!-- Small sparkle (upper-left) -->
  <path d="M7 2l1 3 3 1-3 1-1 3-1-3-3-1 3-1z" fill="white"/>
</svg>
